<?xml version="1.0" encoding="UTF-8"?>
<svg version="1.1" xmlns="http://www.w3.org/2000/svg" width="500" height="500">
<path d="M0 0 C2.98945647 1.52865362 4.55274602 2.83645089 5.77285767 6.01062012 C6.44814868 8.57239153 6.97106078 11.13003907 7.45703125 13.734375 C7.74606575 15.1623642 7.74606575 15.1623642 8.04093933 16.61920166 C8.44421099 18.63130829 8.83782194 20.64537204 9.22241211 22.66113281 C9.80853726 25.72925668 10.42395392 28.79032104 11.04492188 31.8515625 C11.43403315 33.81215518 11.82145799 35.77308346 12.20703125 37.734375 C12.38820999 38.64298279 12.56938873 39.55159058 12.75605774 40.48773193 C13.75144473 45.75079597 14.36413266 50.64167906 14 56 C11.9375 59 11.9375 59 9 61 C3.3590483 61.60024637 -0.42130555 60.20699538 -5.25 57.5 C-9.84225097 54.84304629 -9.84225097 54.84304629 -15 54 C-26.82642898 78.15403208 -26.82642898 78.15403208 -38.25 102.5 C-44.24046404 115.54654412 -50.55542947 128.42744753 -56.88134766 141.31393433 C-62.99905966 153.78127534 -69.00941954 166.28310422 -74.78173828 178.91430664 C-77.03689985 183.83592723 -79.33171915 188.71493952 -81.8203125 193.5234375 C-82.2544043 194.36318115 -82.68849609 195.2029248 -83.13574219 196.06811523 C-83.92779145 197.58246474 -84.73200564 199.09055368 -85.55175781 200.59008789 C-87.0826734 203.50410404 -88.02841939 205.50875053 -87.8359375 208.8359375 C-87.07330149 211.13360677 -87.07330149 211.13360677 -85.25 213.1875 C-76.60992931 223.98758836 -74.79681782 236.59267325 -76 250 C-78.15318942 262.02949539 -84.54531208 272.26975201 -94 280 C-105.02396167 287.63361369 -117.74630017 290.75072716 -131 289 C-140.2991713 287.19021414 -148.07693186 283.50007009 -155 277 C-155.62261719 276.47792969 -156.24523437 275.95585937 -156.88671875 275.41796875 C-164.83593012 268.33092781 -169.73411722 257.18848205 -170.37109375 246.6171875 C-170.63343314 236.27212639 -169.70871014 228.37461382 -165 219 C-164.33315254 217.66675708 -163.6664543 216.3334395 -163 215 C-163.47606689 214.64921387 -163.95213379 214.29842773 -164.44262695 213.93701172 C-186.82421875 197.4453125 -186.82421875 197.4453125 -189.16699219 195.71899414 C-190.73396782 194.56442367 -192.30102632 193.40996566 -193.86816406 192.25561523 C-198.64140482 188.73939322 -203.41146535 185.21891105 -208.17944336 181.69555664 C-210.53596758 179.95707381 -212.89655554 178.22423473 -215.2578125 176.4921875 C-218.5410409 174.08266645 -221.80225693 171.64621994 -225.0546875 169.1953125 C-226.68208068 167.98409147 -228.30967768 166.77314422 -229.9375 165.5625 C-230.689104 164.98814209 -231.44070801 164.41378418 -232.21508789 163.82202148 C-232.91625732 163.30454346 -233.61742676 162.78706543 -234.33984375 162.25390625 C-234.95206787 161.79314697 -235.56429199 161.3323877 -236.19506836 160.85766602 C-237.98735675 159.80702027 -237.98735675 159.80702027 -240.09399414 160.26611328 C-242.59272999 161.2282242 -244.38857722 162.66910927 -246.5 164.3125 C-257.5325476 172.213751 -269.8451208 173.90957924 -283 172 C-283.16798096 173.04426147 -283.16798096 173.04426147 -283.33935547 174.10961914 C-284.0844154 177.36932518 -285.23637823 180.17858589 -286.5703125 183.24609375 C-286.83895111 183.86823257 -287.10758972 184.4903714 -287.3843689 185.13136292 C-287.97753888 186.50376618 -288.57290778 187.87522057 -289.17016602 189.24584961 C-290.50162962 192.30198583 -291.82206757 195.36284774 -293.14312744 198.42349243 C-293.87875305 200.12778915 -294.61489556 201.83186283 -295.35150146 203.53573608 C-299.94379665 214.16577372 -304.47072735 224.82363394 -309.00262451 235.47952271 C-316.0975288 252.16034168 -323.20455848 268.83578948 -330.35546875 285.49267578 C-336.9348271 300.82094335 -343.46540902 316.16995276 -349.99737549 331.51846313 C-354.91059845 343.06309375 -359.8247345 354.60724226 -364.7734375 366.13671875 C-365.13097107 366.96978546 -365.48850464 367.80285217 -365.85687256 368.66116333 C-367.48522245 372.45402709 -369.11538975 376.24609776 -370.74804688 380.03710938 C-371.30860607 381.34114054 -371.86915375 382.64517665 -372.4296875 383.94921875 C-372.90647949 385.05612061 -373.38327148 386.16302246 -373.87451172 387.3034668 C-375.04900482 390.02437349 -375.04900482 390.02437349 -376 393 C-381.46737191 391.25192871 -386.75824848 389.34205919 -392 387 C-391.38863838 383.43841522 -390.43540488 380.34927806 -389.01318359 377.03076172 C-388.60059296 376.06157806 -388.18800232 375.09239441 -387.76290894 374.09384155 C-387.31263336 373.04967072 -386.86235779 372.00549988 -386.3984375 370.9296875 C-385.93035675 369.8338736 -385.462276 368.73805969 -384.98001099 367.60903931 C-383.71278787 364.64487862 -382.44135994 361.68256668 -381.16799927 358.72103882 C-379.83570468 355.61956365 -378.50896098 352.51571574 -377.18164062 349.41210938 C-374.58083121 343.33313102 -371.9742213 337.25666125 -369.36560059 331.18103027 C-367.55691014 326.96786639 -365.75087041 322.75356954 -363.9453125 318.5390625 C-362.22611743 314.52674266 -360.50646669 310.5146213 -358.78466797 306.50341797 C-352.48830599 291.83078002 -346.24022042 277.13757162 -339.98751831 262.44628906 C-334.03273002 248.45544369 -328.06491816 234.47047422 -322.0625 220.5 C-314.27552941 202.375328 -306.63301996 184.18993628 -299 166 C-299.82491943 165.26539551 -300.64983887 164.53079102 -301.49975586 163.77392578 C-302.59253335 162.7896635 -303.6850488 161.80511025 -304.77734375 160.8203125 C-305.31983765 160.33860596 -305.86233154 159.85689941 -306.42126465 159.3605957 C-315.51291181 151.12938949 -320.1419528 140.23378248 -321.16015625 128.08984375 C-321.56240526 118.4533565 -319.25874495 108.14047205 -314 100 C-313.49082031 99.21109375 -312.98164063 98.4221875 -312.45703125 97.609375 C-305.7327037 88.26126932 -295.34757815 80.83147192 -283.98046875 78.36328125 C-267.44634854 76.34798219 -254.32727742 79.30150583 -240.9296875 89.58984375 C-232.00652135 97.77274724 -226.70339028 109.43052687 -225.72265625 121.37890625 C-225.50429438 129.33601297 -226.66374004 136.40715513 -229 144 C-215.49994954 154.5188903 -201.70315391 164.62956901 -187.8125 174.625 C-182.04098447 178.77825128 -176.31083434 182.98016759 -170.625 187.25 C-169.97015625 187.73887695 -169.3153125 188.22775391 -168.640625 188.73144531 C-165.55332511 191.04380175 -162.50362801 193.38549384 -159.51171875 195.8203125 C-158.9688623 196.25311523 -158.42600586 196.68591797 -157.86669922 197.13183594 C-156.41752801 198.29099079 -154.98351 199.46902006 -153.55078125 200.6484375 C-151.09487897 202.31388485 -151.09487897 202.31388485 -148.55078125 201.38671875 C-147.70902344 200.92910156 -146.86726562 200.47148437 -146 200 C-131.00527011 193.61630199 -118.59898447 192.47390236 -103 198 C-102.74130127 197.15969238 -102.48260254 196.31938477 -102.21606445 195.45361328 C-100.90860917 191.74045077 -99.28859142 188.26176161 -97.54296875 184.7421875 C-97.20414673 184.05064575 -96.86532471 183.359104 -96.51623535 182.64660645 C-95.7887799 181.1620153 -95.05980096 179.67816987 -94.32943726 178.19500732 C-92.37697485 174.22830332 -90.43754742 170.25525649 -88.5 166.28125 C-88.11067795 165.48278656 -87.7213559 164.68432312 -87.32023621 163.86166382 C-84.01875333 157.07325626 -80.83347635 150.23697697 -77.6875 143.375 C-72.30641689 131.65911475 -66.67505781 120.07555879 -61 108.5 C-53.57252549 93.34834022 -46.31654054 78.1376878 -39.28515625 62.79785156 C-37.43672494 58.77372109 -35.56416004 54.76102528 -33.6875 50.75 C-33.15511719 49.61046875 -32.62273437 48.4709375 -32.07421875 47.296875 C-31.71972656 46.53890625 -31.36523438 45.7809375 -31 45 C-32.78857422 44.18595703 -32.78857422 44.18595703 -34.61328125 43.35546875 C-36.17984763 42.6331597 -37.74624512 41.91048427 -39.3125 41.1875 C-40.09818359 40.83107422 -40.88386719 40.47464844 -41.69335938 40.10742188 C-42.45068359 39.75615234 -43.20800781 39.40488281 -43.98828125 39.04296875 C-44.68477783 38.72352295 -45.38127441 38.40407715 -46.09887695 38.07495117 C-49.36990783 36.22541362 -50.77425795 34.74172388 -51.875 31.125 C-52.03192146 27.20196338 -51.53458223 25.99541536 -49 23 C-43.89198928 19.38551058 -38.31289221 16.4631949 -32.7734375 13.57421875 C-31.64646957 12.98553764 -31.64646957 12.98553764 -30.49673462 12.38496399 C-28.92300401 11.56545792 -27.34823302 10.74794682 -25.77246094 9.93237305 C-23.36839178 8.6840687 -20.97344825 7.41928412 -18.578125 6.15429688 C-17.03959858 5.35573716 -15.50055353 4.55817568 -13.9609375 3.76171875 C-12.89666031 3.19465462 -12.89666031 3.19465462 -11.81088257 2.61613464 C-7.76359638 0.55042989 -4.64149036 -0.79988216 0 0 Z M-295 103 C-301.33096608 111.4412881 -304.93564901 119.27335013 -303.63671875 130 C-301.87916762 138.45349744 -298.51159986 144.75493425 -291.42578125 149.8515625 C-282.81390971 155.15697825 -273.67059991 156.74740634 -263.66796875 154.46875 C-261.67951009 153.69124336 -261.67951009 153.69124336 -259 152 C-257.989375 151.4225 -256.97875 150.845 -255.9375 150.25 C-248.18844058 144.31455023 -244.08250465 137.19092377 -242.6171875 127.45703125 C-242.23531067 119.45034712 -244.7008572 111.53852509 -249.625 105.1875 C-255.01142438 99.48503541 -262.05196623 95.40898382 -269.8828125 94.76171875 C-279.35412301 94.54490562 -288.12104035 95.92995814 -295 103 Z M-146 222 C-146.70125 222.763125 -147.4025 223.52625 -148.125 224.3125 C-153.51811138 232.04262632 -153.93109943 239.78423181 -153 249 C-150.66647606 258.32020572 -143.94745745 265.2515276 -135.89453125 270.08984375 C-129.24618217 273.2837929 -120.39004975 273.07962705 -113.36328125 271.3515625 C-104.21993599 267.61763093 -98.15849186 261.2338839 -94.0703125 252.3203125 C-91.72299324 245.03848269 -91.74201047 237.28091449 -94.5625 230.125 C-98.72537149 222.26666715 -105.20004633 215.29628065 -113.79296875 212.39453125 C-126.312632 210.15650295 -137.49093419 211.98933434 -146 222 Z " fill="#DDDDDD" transform="translate(443,56)"/>
</svg>
