<?xml version="1.0" encoding="UTF-8"?>
<svg version="1.1" xmlns="http://www.w3.org/2000/svg" width="500" height="500">
<path d="M0 0 C66 0 132 0 200 0 C200 66 200 132 200 200 C232.67 200 265.34 200 299 200 C292.25 207.875 292.25 207.875 289.26317787 210.85986996 C288.58241963 211.54261925 287.90166139 212.22536854 287.20027411 212.9288072 C286.47068909 213.65547938 285.74110406 214.38215156 284.9894104 215.13084412 C284.2002418 215.92086714 283.4110732 216.71089017 282.59799039 217.52485329 C279.96564376 220.15884077 277.32975053 222.78924946 274.69384766 225.41967773 C272.80114587 227.31209732 270.90864352 229.2047144 269.01638794 231.09757996 C264.94855891 235.16593198 260.87891076 239.23245684 256.80800247 243.29772758 C250.92223823 249.17534634 245.03925474 255.05574197 239.15693466 260.9368074 C229.61195067 270.47960566 220.06473814 280.0201711 210.51611328 289.55932617 C201.24345373 298.82279922 191.97185063 308.08732754 182.70166016 317.35327148 C182.12973335 317.92493557 181.55780654 318.49659966 180.96854861 319.0855869 C178.09921351 321.95361691 175.22989911 324.82166762 172.36059499 327.68972862 C148.57693685 351.46302905 124.78965752 375.23270309 101 399 C97.92828776 397.62910731 95.81978158 396.06953908 93.44680405 393.69569302 C92.75609432 393.00958209 92.06538459 392.32347115 91.35374427 391.61656898 C90.60276977 390.86045092 89.85179527 390.10433286 89.07806396 389.32530212 C88.27427 388.52392258 87.47047604 387.72254303 86.64232469 386.89687926 C83.94133522 384.20154037 81.24757343 381.49909146 78.55371094 378.79663086 C76.62308603 376.86597181 74.6909636 374.93681392 72.75891113 373.00758362 C68.05221872 368.30593374 63.35088636 363.59895895 58.6513426 358.89016479 C53.18258087 353.41102511 47.70860201 347.9371102 42.23440602 342.46340079 C32.47148854 332.70098397 22.71341151 322.93374306 12.95800781 313.16381836 C3.48247026 303.67418361 -5.9965721 294.18806808 -15.47949219 284.70581055 C-16.06389243 284.12145026 -16.64829267 283.53708998 -17.250402 282.93502181 C-17.83377351 282.35169066 -18.41714501 281.76835951 -19.01819444 281.16735166 C-29.80357403 270.38266102 -40.58566468 259.59468757 -51.36621912 248.80517377 C-55.18467731 244.98369363 -59.00411678 241.16319589 -62.82386017 237.34300041 C-67.47373507 232.69244499 -72.12172391 228.04001386 -76.76733187 223.3851959 C-79.13972707 221.00816869 -81.51317721 218.6322211 -83.88825226 216.25786972 C-86.45648748 213.69012115 -89.02165184 211.11934529 -91.58599854 208.54771423 C-92.34589592 207.78936545 -93.10579331 207.03101666 -93.88871789 206.24968761 C-94.56899663 205.56618443 -95.24927536 204.88268124 -95.95016861 204.17846584 C-96.5434018 203.58452823 -97.13663498 202.99059062 -97.74784493 202.3786549 C-99 201 -99 201 -99 200 C-66.33 200 -33.66 200 0 200 C0 134 0 68 0 0 Z " fill="#DDDDDD" transform="translate(150,50)"/>
</svg>
