<?xml version="1.0" encoding="UTF-8"?>
<svg version="1.1" xmlns="http://www.w3.org/2000/svg" width="500" height="500">
<path d="M0 0 C3.07171224 1.37089269 5.18021842 2.93046092 7.55319595 5.30430698 C8.24390568 5.99041791 8.93461541 6.67652885 9.64625573 7.38343102 C10.39723023 8.13954908 11.14820473 8.89566714 11.92193604 9.67469788 C12.72573 10.47607742 13.52952396 11.27745697 14.35767531 12.10312074 C17.05866478 14.79845963 19.75242657 17.50090854 22.44628906 20.20336914 C24.37691397 22.13402819 26.3090364 24.06318608 28.24108887 25.99241638 C32.94778128 30.69406626 37.64911364 35.40104105 42.3486574 40.10983521 C47.81741913 45.58897489 53.29139799 51.0628898 58.76559398 56.53659921 C68.52851146 66.29901603 78.28658849 76.06625694 88.04199219 85.83618164 C97.51752974 95.32581639 106.9965721 104.81193192 116.47949219 114.29418945 C117.06389243 114.87854974 117.64829267 115.46291002 118.250402 116.06497819 C118.83377351 116.64830934 119.41714501 117.23164049 120.01819444 117.83264834 C130.80357403 128.61733898 141.58566468 139.40531243 152.36621912 150.19482623 C156.18467731 154.01630637 160.00411678 157.83680411 163.82386017 161.65699959 C168.47373507 166.30755501 173.12172391 170.95998614 177.76733187 175.6148041 C180.13972707 177.99183131 182.51317721 180.3677789 184.88825226 182.74213028 C187.45648748 185.30987885 190.02165184 187.88065471 192.58599854 190.45228577 C193.34589592 191.21063455 194.10579331 191.96898334 194.88871789 192.75031239 C195.56899663 193.43381557 196.24927536 194.11731876 196.95016861 194.82153416 C197.5434018 195.41547177 198.13663498 196.00940938 198.74784493 196.6213451 C200 198 200 198 200 199 C167.33 199 134.66 199 101 199 C101 265 101 331 101 399 C35 399 -31 399 -99 399 C-99 333 -99 267 -99 199 C-131.67 199 -164.34 199 -198 199 C-191.25 191.125 -191.25 191.125 -188.26317787 188.14013004 C-187.24204051 187.11600611 -187.24204051 187.11600611 -186.20027411 186.0711928 C-185.47068909 185.34452062 -184.74110406 184.61784844 -183.9894104 183.86915588 C-183.2002418 183.07913286 -182.4110732 182.28910983 -181.59799039 181.47514671 C-178.96564376 178.84115923 -176.32975053 176.21075054 -173.69384766 173.58032227 C-171.80114587 171.68790268 -169.90864352 169.7952856 -168.01638794 167.90242004 C-163.94855891 163.83406802 -159.87891076 159.76754316 -155.80800247 155.70227242 C-149.92223823 149.82465366 -144.03925474 143.94425803 -138.15693466 138.0631926 C-128.61195067 128.52039434 -119.06473814 118.9798289 -109.51611328 109.44067383 C-100.24345373 100.17720078 -90.97185063 90.91267246 -81.70166016 81.64672852 C-81.12973335 81.07506443 -80.55780654 80.50340034 -79.96854861 79.9144131 C-77.09921351 77.04638309 -74.22989911 74.17833238 -71.36059499 71.31027138 C-47.57693685 47.53697095 -23.78965752 23.76729691 0 0 Z " fill="#DDDDDD" transform="translate(249,51)"/>
</svg>
