<?xml version="1.0" encoding="UTF-8"?>
<svg version="1.1" xmlns="http://www.w3.org/2000/svg" width="500" height="500">
<path d="M0 0 C7.8155174 8.4027298 10.60945439 17.34355339 11.125 28.75 C10.00424702 50.18440068 -9.18381113 64.19996429 -23.25390625 78.2265625 C-25.03488216 80.00567041 -26.81563525 81.7850014 -28.59617615 83.56454468 C-32.78019307 87.74515291 -36.96642655 91.92353087 -41.15377897 96.10079801 C-46.39714582 101.33181457 -51.63699392 106.56635161 -56.87695312 111.80078125 C-66.20684291 121.11998675 -75.53980716 130.43610682 -84.875 139.75 C-83.5168121 143.25868237 -82.00433073 146.23005146 -79.9375 149.375 C-73.62987519 159.83116044 -72.24024709 171.20646992 -74.53125 183.1796875 C-78.44242295 197.50941598 -88.42171266 206.65587908 -98.75 216.6875 C-106.21835543 223.96158056 -113.51946494 231.13303179 -119.96337891 239.34985352 C-122.00512317 241.91337688 -124.16280436 244.33278509 -126.375 246.75 C-129.48958668 250.16739372 -132.4668662 253.6552235 -135.375 257.25 C-138.98649134 261.71420457 -142.76160694 265.98002114 -146.62890625 270.22265625 C-148.93687598 272.81962393 -151.13055863 275.48404013 -153.3125 278.1875 C-157.17208603 282.95996203 -161.24699991 287.48109109 -165.40234375 291.99609375 C-168.62209519 295.58207284 -171.63405176 299.31701492 -174.66015625 303.06640625 C-177.53980887 306.55550916 -180.58193876 309.87996921 -183.62890625 313.22265625 C-185.93687598 315.81962393 -188.13055863 318.48404013 -190.3125 321.1875 C-194.17208603 325.95996203 -198.24699991 330.48109109 -202.40234375 334.99609375 C-205.62209519 338.58207284 -208.63405176 342.31701492 -211.66015625 346.06640625 C-214.53163819 349.54560923 -217.56337773 352.86162186 -220.60546875 356.19140625 C-223.82135969 359.81689431 -226.82855587 363.60012993 -229.83203125 367.40234375 C-231.71040415 369.5608564 -233.51905907 371.14584247 -235.875 372.75 C-247.63357611 364.97288307 -258.77855022 356.4360088 -266.875 344.75 C-267.48085938 344.01523437 -268.08671875 343.28046875 -268.7109375 342.5234375 C-271.36866197 336.19127517 -267.28694083 328.83987242 -264.85546875 322.84960938 C-264.49066406 321.97111328 -264.12585938 321.09261719 -263.75 320.1875 C-263.37746094 319.27419922 -263.00492187 318.36089844 -262.62109375 317.41992188 C-261.71204966 315.19392928 -260.7966263 312.97080556 -259.875 310.75 C-260.205 310.42 -260.535 310.09 -260.875 309.75 C-263.56681275 312.412342 -266.25262147 315.08066667 -268.9375 317.75 C-269.68966797 318.49378906 -270.44183594 319.23757813 -271.21679688 320.00390625 C-275.98318371 324.74965938 -280.52181013 329.62223051 -284.875 334.75 C-285.535 334.42 -286.195 334.09 -286.875 333.75 C-287.88415904 330.11778338 -288.78065789 326.48610083 -289.58007812 322.80273438 C-291.4025725 315.4582637 -294.91858732 310.50706279 -301.15258789 306.1628418 C-303.66745385 304.64858163 -306.21874881 303.24948876 -308.8125 301.875 C-310.68744407 300.83949274 -312.56113096 299.80170608 -314.43359375 298.76171875 C-315.3551123 298.25431152 -316.27663086 297.7469043 -317.22607422 297.22412109 C-339.97340238 284.56528538 -356.52060733 270.51007326 -365.875 245.75 C-366.29007813 244.88246094 -366.70515625 244.01492188 -367.1328125 243.12109375 C-368.13421615 240.59954132 -368.49379897 239.40406745 -367.875 236.75 C-364.67181416 232.49728546 -360.92002858 229.1916845 -356.875 225.75 C-356.15957031 225.110625 -355.44414062 224.47125 -354.70703125 223.8125 C-353.46043116 222.70212631 -352.2027818 221.60401418 -350.93359375 220.51953125 C-346.84662065 217.00644052 -342.87334299 213.36325668 -338.875 209.75 C-339.44718262 209.89622803 -340.01936523 210.04245605 -340.60888672 210.19311523 C-356.2206424 214.12176727 -371.75272374 217.43704604 -387.875 214.75 C-387.38858785 207.90182898 -386.51506048 201.41957927 -384.875 194.75 C-383.84503906 194.78480469 -382.81507813 194.81960938 -381.75390625 194.85546875 C-337.56355755 195.89326842 -295.41285378 171.16020826 -264.1875 141.625 C-263.48665283 140.95597656 -262.78580566 140.28695312 -262.0637207 139.59765625 C-258.01299127 135.73228545 -253.89868736 131.97162117 -249.66772461 128.30419922 C-247.41988498 126.35543889 -245.20781887 124.36891254 -243 122.375 C-237.875 117.75 -237.875 117.75 -235.76660156 115.90209961 C-230.93163506 111.62901099 -226.29171287 107.22338253 -221.78125 102.61328125 C-221.25836395 102.08019348 -220.73547791 101.54710571 -220.19674683 100.99786377 C-218.04517203 98.80116253 -215.89590096 96.60255057 -213.76123047 94.3894043 C-202.98259989 83.23622039 -191.50683103 73.97120967 -175.34350586 73.2265625 C-162.40259785 73.01085823 -152.21760094 76.97300549 -141.875 84.75 C-142.865 85.245 -142.865 85.245 -143.875 85.75 C-143.545 86.41 -143.215 87.07 -142.875 87.75 C-142.16126221 87.83241943 -141.44752441 87.91483887 -140.7121582 87.99975586 C-136.61893034 89.08214887 -134.33610356 91.79388673 -131.48046875 94.75390625 C-130.88825027 95.35178452 -130.2960318 95.94966278 -129.68586731 96.56565857 C-127.80179531 98.47207017 -125.93212846 100.39193191 -124.0625 102.3125 C-122.78543146 103.60963653 -121.50744661 104.90587162 -120.22851562 106.20117188 C-117.09995948 109.37376337 -113.98424811 112.55848828 -110.875 115.75 C-111.8300972 116.87120157 -112.78617951 117.99156401 -113.74267578 119.11157227 C-114.2749881 119.73556412 -114.80730042 120.35955597 -115.35574341 121.00245667 C-117.07690298 122.98224136 -118.876573 124.85154154 -120.75 126.6875 C-121.34554688 127.27402344 -121.94109375 127.86054688 -122.5546875 128.46484375 C-122.99039062 128.88894531 -123.42609375 129.31304687 -123.875 129.75 C-126.69750456 128.4682483 -128.71252719 127.14970688 -130.86425781 124.92431641 C-131.41873596 124.35677643 -131.97321411 123.78923645 -132.54449463 123.20449829 C-133.13309265 122.59302948 -133.72169067 121.98156067 -134.328125 121.3515625 C-135.59997517 120.05440775 -136.87212001 118.75754188 -138.14453125 117.4609375 C-140.1341246 115.42186153 -142.12039118 113.37976484 -144.10107422 111.33203125 C-146.02191186 109.35034393 -147.95536033 107.38164937 -149.890625 105.4140625 C-150.4711261 104.80664215 -151.0516272 104.1992218 -151.64971924 103.57339478 C-157.88507605 97.26373634 -164.27144813 94.29936783 -173.0625 93.4375 C-188.30346415 94.68675936 -197.93219515 107.6887172 -208 117.875 C-210.29128717 120.19308585 -212.58601306 122.50768961 -214.8828125 124.8203125 C-215.39546661 125.34126495 -215.90812073 125.86221741 -216.43630981 126.3989563 C-219.7563396 129.74117419 -223.21559859 132.78205327 -226.875 135.75 C-225.46686573 138.93963306 -223.79453332 141.0780734 -221.33163452 143.53387451 C-220.59685379 144.27140457 -219.86207306 145.00893463 -219.10502625 145.76881409 C-218.29870255 146.56794724 -217.49237885 147.36708038 -216.66162109 148.19042969 C-215.8127684 149.03957443 -214.96391571 149.88871918 -214.08934021 150.76359558 C-211.76461079 153.08717119 -209.43550655 155.40625126 -207.10438108 157.72340679 C-204.66778611 160.14749135 -202.23686129 162.57724848 -199.80532837 165.00640869 C-195.20177578 169.60374743 -190.59314913 174.19596453 -185.98267615 178.78636193 C-180.7333182 184.01335793 -175.48964448 189.24604043 -170.2464397 194.47920752 C-159.46227064 205.24247673 -148.67098816 215.99858507 -137.875 226.75 C-133.57088803 224.68371736 -131.6284743 222.68353472 -128.875 218.75 C-129.16435521 215.30550111 -130.63697974 213.61601077 -133.03236389 211.23187256 C-133.70687088 210.55324158 -134.38137787 209.8746106 -135.07632446 209.17541504 C-136.19302017 208.07489807 -136.19302017 208.07489807 -137.33227539 206.95214844 C-138.11270706 206.17127869 -138.89313873 205.39040894 -139.69721985 204.58587646 C-142.28198557 202.00320295 -144.87721992 199.43132133 -147.47265625 196.859375 C-149.26549923 195.0721264 -151.05768159 193.28421488 -152.84922791 191.4956665 C-157.08652982 187.26865382 -161.3304432 183.04839165 -165.57762665 178.83131623 C-170.41297415 174.0295045 -175.23980264 169.21916819 -180.06593335 164.40809584 C-189.99283678 154.5125474 -199.93039409 144.62775576 -209.875 134.75 C-208.9199028 133.62879843 -207.96382049 132.50843599 -207.00732422 131.38842773 C-206.4750119 130.76443588 -205.94269958 130.14044403 -205.39425659 129.49754333 C-202.71611179 126.41697477 -199.78790921 123.60465102 -196.875 120.75 C-191.73299419 125.04543946 -186.95461995 129.55593392 -182.2590332 134.33178711 C-181.5329184 135.06578735 -180.80680359 135.7997876 -180.0586853 136.55603027 C-178.49392436 138.13789379 -176.93021326 139.72079636 -175.36745644 141.30463982 C-172.04619579 144.66810696 -168.71549129 148.02215501 -165.38532543 151.37680149 C-159.19405086 157.61378177 -153.00674148 163.85457247 -146.83569336 170.11157227 C-142.53305927 174.47340774 -138.21847554 178.82309609 -133.89558983 183.16485786 C-132.2503714 184.82185171 -130.60970752 186.48338031 -128.97365761 188.14942741 C-126.69467673 190.46916865 -124.40082615 192.77313853 -122.1027832 195.07397461 C-121.42685623 195.76944901 -120.75092926 196.4649234 -120.05451965 197.18147278 C-119.42807556 197.80248871 -118.80163147 198.42350464 -118.15620422 199.06333923 C-117.61590734 199.60954391 -117.07561045 200.15574858 -116.51894093 200.71850491 C-114.90525766 201.9653437 -114.90525766 201.9653437 -112.82007122 201.54316044 C-105.65079195 198.61967433 -99.11741503 189.65709806 -95.875 182.75 C-93.53321744 175.52567734 -93.76261587 167.12950201 -97.0625 160.3125 C-99.29125763 156.39951075 -101.94667339 153.15319038 -104.875 149.75 C-107.39601726 145.30820768 -107.59433999 140.72441936 -106.875 135.75 C-103.89273532 128.95794759 -98.39677116 123.88477521 -93.18505859 118.78295898 C-92.32107956 117.92496704 -91.45710052 117.0669751 -90.56694031 116.1829834 C-88.69970956 114.33045974 -86.83004013 112.48087029 -84.95560837 110.63567924 C-81.9883653 107.71409575 -79.0334141 104.78028299 -76.08023071 101.84449768 C-68.74726125 94.55841348 -61.39907236 87.28773075 -54.04656982 80.0213623 C-48.32270451 74.36427938 -42.60341928 68.70272947 -36.89784682 63.02718979 C-33.96597292 60.11176129 -31.0249955 57.20594808 -28.0766561 54.30717647 C-25.81182967 52.07537734 -23.5600611 49.83046276 -21.30615234 47.58764648 C-20.08579033 46.39592583 -20.08579033 46.39592583 -18.84077454 45.18013 C-13.44186344 39.77279809 -10.39068483 35.68209681 -9.375 27.9375 C-9.62170642 22.18475488 -12.26014025 16.24065391 -16.4375 12.26171875 C-20.10587637 9.73971 -23.65969049 8.58555908 -28.0625 8.4375 C-29.13564453 8.38142578 -29.13564453 8.38142578 -30.23046875 8.32421875 C-38.2298981 9.61216232 -43.50639948 14.81569358 -48.94335938 20.36425781 C-49.70530609 21.12562042 -50.46725281 21.88698303 -51.25228882 22.67141724 C-53.75071692 25.17261629 -56.23470273 27.68765016 -58.71875 30.203125 C-60.45521929 31.94706012 -62.19257794 33.69011009 -63.93078613 35.43231201 C-68.4901563 40.00691123 -73.03738292 44.59339718 -77.58215332 49.18249512 C-82.22715749 53.8685103 -86.88358974 58.54313914 -91.5390625 63.21875 C-100.66223694 72.38474725 -109.77301222 81.56296618 -118.875 90.75 C-122.87874431 88.91307611 -125.59457934 86.25882084 -128.625 83.125 C-129.13160156 82.609375 -129.63820313 82.09375 -130.16015625 81.5625 C-131.40303902 80.29616661 -132.63965276 79.0236856 -133.875 77.75 C-129.6353231 72.69510043 -125.21383168 67.93094594 -120.55957031 63.25756836 C-119.85299286 62.54441971 -119.14641541 61.83127106 -118.41842651 61.09651184 C-116.09954966 58.75806481 -113.77679676 56.42352574 -111.453125 54.08984375 C-110.65469933 53.28734255 -109.85627365 52.48484135 -109.03365326 51.65802193 C-104.81056345 47.41414519 -100.58425608 43.17350188 -96.35546875 38.93530273 C-92.00514635 34.57390486 -87.66663109 30.20095444 -83.33064651 25.8253088 C-79.97771997 22.44616964 -76.61587308 19.07601127 -73.2516098 15.70816231 C-71.64878568 14.10048784 -70.04932219 12.48945517 -68.45340729 10.8749218 C-66.21434122 8.61135649 -63.96280765 6.3609157 -61.70800781 4.11303711 C-60.73814438 3.12395859 -60.73814438 3.12395859 -59.74868774 2.11489868 C-42.37509452 -15.0665094 -18.38775698 -17.14370081 0 0 Z M-245.22265625 151.03515625 C-245.78855469 151.62167969 -246.35445313 152.20820313 -246.9375 152.8125 C-250.03203386 155.95088353 -253.24634128 158.86459035 -256.58203125 161.7421875 C-259.34405838 164.16072574 -262.04899427 166.63889555 -264.75 169.125 C-269.26440032 173.27816346 -273.80530733 177.39934478 -278.37109375 181.49609375 C-281.09107891 183.94450473 -283.79595561 186.40900079 -286.5 188.875 C-289.51281636 191.61926449 -292.53749845 194.34020429 -295.625 197 C-300.32891428 201.08190909 -304.83896682 205.37196743 -309.38134766 209.63134766 C-313.12484665 213.13544227 -316.90606946 216.57303363 -320.79296875 219.91796875 C-324.25631472 222.96545329 -327.6295411 226.11186022 -330.99707031 229.26464844 C-334.99496181 232.9949183 -339.13437348 236.48781905 -343.4609375 239.8359375 C-345.17263762 241.74118502 -345.17263762 241.74118502 -344.79296875 244.640625 C-339.81240136 261.51097243 -323.41739767 271.5799738 -308.87890625 279.515625 C-306.29029575 280.91465619 -303.6981123 282.30681369 -301.10449219 283.6965332 C-294.14891338 287.4738999 -288.01793834 291.76923919 -281.875 296.75 C-280.54428903 297.75348696 -279.21136565 298.75405591 -277.875 299.75 C-277.31103516 299.18079834 -276.74707031 298.61159668 -276.16601562 298.02514648 C-273.57173231 295.40988156 -270.97340077 292.79867381 -268.375 290.1875 C-267.488125 289.29224609 -266.60125 288.39699219 -265.6875 287.47460938 C-261.13714453 282.90752465 -256.54434082 278.47146125 -251.6484375 274.27612305 C-250.00889102 272.86521927 -248.41192645 271.42212234 -246.828125 269.94921875 C-245.93609375 269.12035156 -245.0440625 268.29148437 -244.125 267.4375 C-243.22265625 266.59574219 -242.3203125 265.75398438 -241.390625 264.88671875 C-237.99581115 262.00323555 -235.92719188 260.86691021 -231.5 260.375 C-227.1570782 260.82426777 -225.16826866 261.9162572 -221.875 264.75 C-219.6443871 268.24139411 -219.67053127 271.24660225 -220.23022461 275.30126953 C-221.63193881 280.62470513 -224.67456066 285.30760604 -227.375 290.0625 C-228.65725967 292.37951416 -229.93588644 294.6985424 -231.2109375 297.01953125 C-231.83709961 298.1585791 -232.46326172 299.29762695 -233.10839844 300.47119141 C-243.85368491 318.29044851 -243.85368491 318.29044851 -247.875 337.75 C-246.26886164 340.0712536 -246.26886164 340.0712536 -244.0625 342.0625 C-243.35480469 342.75988281 -242.64710938 343.45726562 -241.91796875 344.17578125 C-239.90879568 346.05518465 -239.90879568 346.05518465 -236.875 345.75 C-234.80963004 343.63704665 -234.80963004 343.63704665 -232.75 340.875 C-229.72884149 337.0521101 -226.66713089 333.34246564 -223.375 329.75 C-220.27944804 326.35401318 -217.32348793 322.88828469 -214.4375 319.3125 C-210.57791397 314.54003797 -206.50300009 310.01890891 -202.34765625 305.50390625 C-199.12790481 301.91792716 -196.11594824 298.18298508 -193.08984375 294.43359375 C-190.21019113 290.94449084 -187.16806124 287.62003079 -184.12109375 284.27734375 C-181.81312402 281.68037607 -179.61944137 279.01595987 -177.4375 276.3125 C-174.36163412 272.50912497 -171.18746834 268.84917348 -167.875 265.25 C-161.53433273 258.35625272 -155.72001538 251.06282194 -149.875 243.75 C-154.49740534 238.20300461 -159.41604231 233.06647441 -164.52661133 227.96899414 C-165.37444183 227.11941132 -166.22227234 226.26982849 -167.09579468 225.39450073 C-169.4014133 223.08525691 -171.7092389 220.77824915 -174.0182631 218.47241139 C-176.43894705 216.05427303 -178.85717471 213.63368021 -181.27580261 211.21348572 C-185.32977854 207.15769658 -189.38584535 203.10400746 -193.44311523 199.05151367 C-198.13824769 194.36184426 -202.82973718 189.66855355 -207.51939374 184.97340876 C-211.55078124 180.93749214 -215.58410293 176.90351624 -219.61906642 172.87117475 C-222.02728811 170.46451412 -224.43482401 168.05717791 -226.84061623 165.64808846 C-229.51479409 162.97138794 -232.19212711 160.29788511 -234.87036133 157.62524414 C-236.07110039 156.42146873 -236.07110039 156.42146873 -237.2960968 155.19337463 C-238.02083191 154.47145935 -238.74556702 153.74954407 -239.49226379 153.00575256 C-240.44154361 152.05703828 -240.44154361 152.05703828 -241.4100008 151.08915806 C-243.33877995 149.29656815 -243.33877995 149.29656815 -245.22265625 151.03515625 Z " fill="#DDDDDD" transform="translate(438.875,69.25)"/>
<path d="M0 0 C4.56030824 3.80475422 8.85089392 7.74969621 13 12 C11.41332422 15.90285767 8.86649519 18.33520982 5.875 21.25 C4.96492188 22.14203125 4.05484375 23.0340625 3.1171875 23.953125 C2.06917969 24.96632813 2.06917969 24.96632813 1 26 C-2.90285767 24.41332422 -5.33520982 21.86649519 -8.25 18.875 C-9.14203125 17.96492188 -10.0340625 17.05484375 -10.953125 16.1171875 C-11.62859375 15.41851562 -12.3040625 14.71984375 -13 14 C-8.88380164 9.08064098 -4.59589638 4.47352044 0 0 Z " fill="#DDDDDD" transform="translate(405,89)"/>
</svg>
