<?xml version="1.0" encoding="UTF-8"?>
<svg version="1.1" xmlns="http://www.w3.org/2000/svg" width="500" height="500">
<path d="M0 0 C2.49510222 2.01709316 4.70483077 4.11686062 6.85546875 6.5 C7.33628906 6.98855469 7.81710937 7.47710937 8.3125 7.98046875 C17.35002917 17.61287326 20.10156023 29.89124645 19.76953125 42.85546875 C18.44480832 54.93988571 12.54884924 66.72168996 3.3125 74.6953125 C-2.58944968 79.00190503 -8.20124788 82.20716202 -15.14453125 84.5 C-16.62953125 84.995 -16.62953125 84.995 -18.14453125 85.5 C-34.74573124 86.88886956 -47.40290834 84.46962049 -60.44140625 73.58203125 C-68.440229 66.04930531 -71.34955616 57.93618149 -75.14453125 47.5 C-175.46453125 47.5 -275.78453125 47.5 -379.14453125 47.5 C-379.14453125 41.56 -379.14453125 35.62 -379.14453125 29.5 C-278.82453125 29.5 -178.50453125 29.5 -75.14453125 29.5 C-73.82453125 25.54 -72.50453125 21.58 -71.14453125 17.5 C-63.41960715 5.11097078 -53.90011385 -4.57265919 -39.25390625 -8.02734375 C-25.23189262 -10.15883075 -11.723539 -8.54174062 0 0 Z M-51.14453125 18.25 C-56.6487323 25.35566786 -58.88006099 32.57376773 -58.5234375 41.546875 C-57.44206075 49.97492476 -53.63190844 57.00977844 -47.14453125 62.5 C-38.8461339 68.27065373 -31.12553183 69.82532675 -21.14453125 68.5 C-12.90738896 66.73736675 -7.24965987 62.08156093 -2.14453125 55.5 C2.91276312 47.41650792 3.25018861 37.82854138 1.23046875 28.6640625 C-1.51510496 20.69699592 -6.99765694 14.89521719 -14.45703125 11.0625 C-27.3828419 5.21573372 -41.33905138 8.00733313 -51.14453125 18.25 Z " fill="#DDDDDD" transform="translate(430.14453125,98.5)"/>
<path d="M0 0 C9.20569586 7.18016338 16.4600718 15.34752238 19 27 C19 28.32 19 29.64 19 31 C119.98 31 220.96 31 325 31 C325 36.61 325 42.22 325 48 C224.35 48 123.7 48 20 48 C18.68 51.96 17.36 55.92 16 60 C8.64391585 72.83037934 -0.76197659 80.29312945 -14.625 85.3125 C-29.02784717 88.24641331 -42.04265615 86.07698911 -54.625 78.3125 C-64.78828465 71.10678496 -71.0009032 61.40328302 -73.8828125 49.2890625 C-76.24407487 34.7927049 -73.5498047 23.36110309 -66 11 C-50.41654266 -9.64872706 -21.36827 -14.63380671 0 0 Z M-51 20 C-57.36517019 28.45003983 -57.94962522 36.61743093 -57 47 C-55.80479457 50.70991766 -54.15717011 53.7673894 -52 57 C-51.443125 57.9075 -50.88625 58.815 -50.3125 59.75 C-43.1072874 66.76047712 -35.62498098 69.28808248 -25.7590332 69.23999023 C-16.06962725 69.04562017 -11.23097256 66.03879363 -4.20703125 59.4140625 C2.02659106 52.59569332 3.38245852 45.12559045 3.2734375 36.1640625 C2.53246717 27.5899772 -1.5898741 20.63389972 -8 15 C-22.58984426 5.09270711 -39.04541173 7.10779697 -51 20 Z " fill="#DDDDDD" transform="translate(125,363)"/>
<path d="M0 0 C132 0 264 0 400 0 C400 5.94 400 11.88 400 18 C268 18 136 18 0 18 C0 12.06 0 6.12 0 0 Z " fill="#DDDDDD" transform="translate(50,50)"/>
<path d="M0 0 C131.67 0 263.34 0 399 0 C399 5.61 399 11.22 399 17 C267.33 17 135.66 17 0 17 C0 11.39 0 5.78 0 0 Z " fill="#DDDDDD" transform="translate(51,288)"/>
<path d="M0 0 C131.67 0 263.34 0 399 0 C399 5.61 399 11.22 399 17 C267.33 17 135.66 17 0 17 C0 11.39 0 5.78 0 0 Z " fill="#DDDDDD" transform="translate(51,206)"/>
</svg>
