<?xml version="1.0" encoding="UTF-8"?>
<svg version="1.1" xmlns="http://www.w3.org/2000/svg" width="500" height="500">
<path d="M0 0 C8.70457888 9.88134104 13.39753602 21.4227787 13.17578125 34.6171875 C12.10740383 47.85319662 6.87725497 60.21571327 -3.03515625 69.23046875 C-14.96442187 78.57474102 -28.14288149 81.70614411 -43.03515625 80.23046875 C-55.47245255 77.63511266 -66.78578042 71.04450844 -73.9140625 60.43359375 C-77.6280525 54.32373128 -79.71034234 49.20491047 -82.03515625 42.23046875 C-131.04015625 42.72546875 -131.04015625 42.72546875 -181.03515625 43.23046875 C-169.11348742 59.49047494 -169.11348742 59.49047494 -156.68359375 75.34570312 C-151.63332458 81.85482106 -151.63332458 81.85482106 -151.50390625 86.66015625 C-152.03515625 90.23046875 -152.03515625 90.23046875 -153.91015625 92.66796875 C-161.83116793 98.49224205 -163.28411593 95.23046875 -178.03515625 95.23046875 C-178.03515625 172.45046875 -178.03515625 249.67046875 -178.03515625 329.23046875 C-115.00515625 329.23046875 -51.97515625 329.23046875 12.96484375 329.23046875 C12.96484375 334.84046875 12.96484375 340.45046875 12.96484375 346.23046875 C-87.68515625 346.23046875 -188.33515625 346.23046875 -292.03515625 346.23046875 C-293.35515625 350.19046875 -294.67515625 354.15046875 -296.03515625 358.23046875 C-303.3912404 371.06084809 -312.79713284 378.5235982 -326.66015625 383.54296875 C-341.06300342 386.47688206 -354.0778124 384.30745786 -366.66015625 376.54296875 C-376.8234409 369.33725371 -383.03605945 359.63375177 -385.91796875 347.51953125 C-388.27923112 333.02317365 -385.58496095 321.59157184 -378.03515625 309.23046875 C-370.43270181 299.15690142 -359.48383369 292.33803265 -347.03515625 290.23046875 C-332.98637836 288.81513281 -320.71338036 291.46171732 -309.4609375 300.23828125 C-301.41777895 307.13928724 -295.33178416 314.69418455 -293.03515625 325.23046875 C-293.03515625 326.55046875 -293.03515625 327.87046875 -293.03515625 329.23046875 C-261.02515625 329.23046875 -229.01515625 329.23046875 -196.03515625 329.23046875 C-196.03515625 252.01046875 -196.03515625 174.79046875 -196.03515625 95.23046875 C-202.63515625 95.23046875 -209.23515625 95.23046875 -216.03515625 95.23046875 C-221.03515625 92.23046875 -221.03515625 92.23046875 -222.03515625 90.23046875 C-222.83647872 84.73743377 -222.26610418 82.00283042 -218.9921875 77.48828125 C-217.62993701 75.76196965 -216.2476359 74.05132698 -214.84765625 72.35546875 C-207.22145021 62.85840035 -200.19514218 53.14429542 -193.03515625 43.23046875 C-289.06515625 42.73546875 -289.06515625 42.73546875 -387.03515625 42.23046875 C-387.03515625 36.29046875 -387.03515625 30.35046875 -387.03515625 24.23046875 C-286.38515625 24.23046875 -185.73515625 24.23046875 -82.03515625 24.23046875 C-80.38515625 19.94046875 -78.73515625 15.65046875 -77.03515625 11.23046875 C-69.00279844 -2.38961623 -59.24198064 -9.57883749 -44.03515625 -13.76953125 C-28.12108208 -17.42194171 -11.51699523 -11.08805686 0 0 Z M-59.03515625 14.23046875 C-64.3295387 22.75665786 -66.67727129 31.09814982 -64.38671875 41.046875 C-61.25500859 50.66952288 -56.07339929 56.64382275 -47.1484375 61.3203125 C-39.52013236 64.60570085 -30.22638534 64.42530872 -22.53515625 61.48046875 C-14.39745023 57.68724772 -9.59775527 51.87882714 -5.90625 43.7421875 C-3.06695893 35.55535272 -3.61621341 27.45697147 -7.2265625 19.65625 C-10.5186327 13.6551738 -14.17520913 9.73948847 -20.03515625 6.23046875 C-21.04578125 5.61171875 -22.05640625 4.99296875 -23.09765625 4.35546875 C-36.1520755 -0.65622783 -50.21393406 4.06396213 -59.03515625 14.23046875 Z M-363.03515625 318.23046875 C-369.40032644 326.68050858 -369.98478147 334.84789968 -369.03515625 345.23046875 C-367.83995082 348.94038641 -366.19232636 351.99785815 -364.03515625 355.23046875 C-363.47828125 356.13796875 -362.92140625 357.04546875 -362.34765625 357.98046875 C-355.14244365 364.99094587 -347.66013723 367.51855123 -337.79418945 367.47045898 C-328.1047835 367.27608892 -323.26612881 364.26926238 -316.2421875 357.64453125 C-310.00856519 350.82616207 -308.65269773 343.3560592 -308.76171875 334.39453125 C-309.50268908 325.82044595 -313.62503035 318.86436847 -320.03515625 313.23046875 C-334.62500051 303.32317586 -351.08056798 305.33826572 -363.03515625 318.23046875 Z " fill="#DDDDDD" transform="translate(437.03515625,64.76953125)"/>
</svg>
