<?xml version="1.0" encoding="UTF-8"?>
<svg version="1.1" xmlns="http://www.w3.org/2000/svg" width="500" height="500">
<path d="M0 0 C5.15404267 5.3953368 8.13423561 11.02226332 10.8359375 17.93359375 C11.8259375 20.40859375 11.8259375 20.40859375 12.8359375 22.93359375 C82.1359375 22.93359375 151.4359375 22.93359375 222.8359375 22.93359375 C224.4859375 18.64359375 226.1359375 14.35359375 227.8359375 9.93359375 C235.60603729 -1.57213094 245.71764962 -10.61545978 259.48046875 -13.94921875 C274.94784904 -16.46605303 287.43338283 -13.08560576 300.25 -4.4375 C310.09347974 3.44868551 316.13233135 15.93088642 317.7109375 28.30859375 C318.43662869 41.7720751 314.59588992 53.41494826 306.41796875 64.08984375 C304.01627258 66.73497962 301.69904301 68.87058706 298.8359375 70.99609375 C297.5984375 71.94162109 297.5984375 71.94162109 296.3359375 72.90625 C291.16303622 75.90260688 285.41552267 77.78759945 279.8359375 79.93359375 C279.8359375 149.23359375 279.8359375 218.53359375 279.8359375 289.93359375 C284.1259375 291.58359375 288.4159375 293.23359375 292.8359375 294.93359375 C304.77991828 302.99965869 313.75989598 313.5787333 316.8359375 327.93359375 C319.3574115 341.55925132 315.95708693 353.30378759 308.8359375 364.93359375 C303.98173363 371.80787004 298.31922884 376.18050574 290.8359375 379.93359375 C290.05476563 380.33578125 289.27359375 380.73796875 288.46875 381.15234375 C276.99970218 386.41682472 264.64938004 385.70888022 252.8359375 381.93359375 C240.45677677 377.07740703 231.46162468 367.73071156 225.95703125 355.7578125 C224.80591331 352.8579579 223.82255947 349.89345967 222.8359375 346.93359375 C153.5359375 346.93359375 84.2359375 346.93359375 12.8359375 346.93359375 C10.5259375 352.21359375 8.2159375 357.49359375 5.8359375 362.93359375 C-2.86433836 374.1556887 -13.32383916 382.26775152 -27.62109375 384.46484375 C-42.28204013 385.86263712 -54.61673569 382.1180334 -66.1640625 372.93359375 C-75.94606884 363.92196519 -81.21268356 352.65822912 -82.37890625 339.51171875 C-82.88706129 326.74686403 -78.06527225 316.07535653 -70.9765625 305.74609375 C-62.71385048 297.48338173 -55.41720938 294.26172716 -44.1640625 289.93359375 C-44.1640625 220.63359375 -44.1640625 151.33359375 -44.1640625 79.93359375 C-48.4540625 78.28359375 -52.7440625 76.63359375 -57.1640625 74.93359375 C-68.23807579 68.72811022 -76.47221021 59.06500648 -80.0703125 46.859375 C-83.51014208 33.14783211 -82.54301828 21.02787881 -75.73046875 8.37890625 C-67.70177374 -4.15466751 -56.25960481 -11.12830466 -41.9609375 -14.6015625 C-25.88752267 -17.19116822 -11.36413236 -10.8513105 0 0 Z M-57.6640625 12.24609375 C-63.23919665 19.74538925 -65.81438606 27.94261543 -64.9453125 37.28515625 C-63.39035512 45.98693699 -58.41903349 53.22358423 -51.2109375 58.3125 C-43.67212671 63.21272701 -37.14008752 63.66780778 -28.1640625 62.93359375 C-19.63976836 60.87316354 -13.23049698 56.29189777 -8.3515625 49.05859375 C-4.09034048 41.6715411 -2.87815078 33.55742285 -4.78125 25.234375 C-7.23545103 17.44825935 -11.39636948 11.00157446 -18.35546875 6.5234375 C-31.51717861 -0.239209 -47.2708779 1.15311866 -57.6640625 12.24609375 Z M246.52734375 12.77734375 C240.26563302 20.75994034 238.97457933 28.96644921 239.8359375 38.93359375 C241.84502126 47.38142788 246.36715844 53.82603268 253.46484375 58.76171875 C261.9929058 63.62191923 270.11058675 64.43843743 279.6640625 62.30078125 C287.63888417 59.58542786 293.44458217 54.07295197 297.2734375 46.62109375 C300.65037426 39.15548916 301.07271121 30.98151255 299.1171875 23 C295.53162733 13.50115712 289.6833806 8.5372633 280.8359375 3.93359375 C268.35038972 -0.22825551 255.29192897 3.28680299 246.52734375 12.77734375 Z M10.8359375 43.93359375 C10.62839844 44.61164063 10.42085937 45.2896875 10.20703125 45.98828125 C6.41865302 57.43267072 -0.02953036 67.73800516 -11.01171875 73.40234375 C-12.90955012 74.26249394 -14.82039677 75.09481511 -16.74609375 75.890625 C-19.35066981 76.92814994 -19.35066981 76.92814994 -22.1640625 78.93359375 C-21.5040625 78.93359375 -20.8440625 78.93359375 -20.1640625 78.93359375 C-20.1640625 148.89359375 -20.1640625 218.85359375 -20.1640625 290.93359375 C-21.1540625 291.26359375 -22.1440625 291.59359375 -23.1640625 291.93359375 C-22.48601562 292.14113281 -21.80796875 292.34867188 -21.109375 292.5625 C-7.57007931 297.04434442 1.21681055 304.53241257 7.6484375 317.24609375 C8.38419623 318.80550048 9.11388461 320.36779367 9.8359375 321.93359375 C10.49804968 323.26919462 11.16318957 324.60331842 11.8359375 325.93359375 C11.8359375 324.94359375 11.8359375 323.95359375 11.8359375 322.93359375 C81.7959375 322.93359375 151.7559375 322.93359375 223.8359375 322.93359375 C224.1659375 323.59359375 224.4959375 324.25359375 224.8359375 324.93359375 C225.25552734 323.79083984 225.25552734 323.79083984 225.68359375 322.625 C230.38013955 310.5287518 237.11261136 301.08505619 249.078125 295.390625 C251.97758485 294.17285186 254.88411417 293.01742736 257.8359375 291.93359375 C257.1759375 291.60359375 256.5159375 291.27359375 255.8359375 290.93359375 C255.8359375 220.97359375 255.8359375 151.01359375 255.8359375 78.93359375 C256.4959375 78.60359375 257.1559375 78.27359375 257.8359375 77.93359375 C257.0625 77.64226562 256.2890625 77.3509375 255.4921875 77.05078125 C240.93587078 71.32193383 232.30644094 63.18324178 225.8359375 48.93359375 C225.17472967 47.59754494 224.50991332 46.2632474 223.8359375 44.93359375 C223.8359375 45.59359375 223.8359375 46.25359375 223.8359375 46.93359375 C153.8759375 46.93359375 83.9159375 46.93359375 11.8359375 46.93359375 C11.3409375 45.44859375 11.3409375 45.44859375 10.8359375 43.93359375 Z M-58.54296875 317.76953125 C-63.96943094 325.01353138 -65.90639565 332.9636724 -64.79296875 341.91796875 C-63.06407541 350.37988151 -59.67383195 356.68984456 -52.58984375 361.78515625 C-43.97797221 367.090572 -34.83466241 368.68100009 -24.83203125 366.40234375 C-22.84357259 365.62483711 -22.84357259 365.62483711 -20.1640625 363.93359375 C-19.1534375 363.35609375 -18.1428125 362.77859375 -17.1015625 362.18359375 C-9.44859457 356.32174597 -5.23949609 349.2199584 -3.81640625 339.578125 C-3.47421699 331.17217138 -6.05386425 323.26222386 -11.36328125 316.75390625 C-17.87055571 310.17605397 -25.14911865 307.00953482 -34.3515625 306.49609375 C-43.91360555 306.71938322 -52.16693039 310.69093565 -58.54296875 317.76953125 Z M246.8359375 316.93359375 C240.65008193 325.18140118 239.04117599 332.69441633 239.8359375 342.93359375 C241.04141971 351.0705987 245.93296543 356.47260794 251.8359375 361.93359375 C259.66931899 367.73609856 268.44621699 367.79240965 277.8359375 366.93359375 C281.54585516 365.73838832 284.6033269 364.09076386 287.8359375 361.93359375 C288.7434375 361.37671875 289.6509375 360.81984375 290.5859375 360.24609375 C298.39030354 352.22493976 300.22175299 344.32103819 300.109375 333.4765625 C299.46370119 325.11047473 295.12419486 318.37946192 288.8359375 312.93359375 C275.11923158 304.53263253 258.16872985 304.03255598 246.8359375 316.93359375 Z " fill="#DDDDDD" transform="translate(132.1640625,65.06640625)"/>
</svg>
