<?xml version="1.0" encoding="UTF-8"?>
<svg version="1.1" xmlns="http://www.w3.org/2000/svg" width="500" height="500">
<path d="M0 0 C132 0 264 0 400 0 C400 5.94 400 11.88 400 18 C273.94 18 147.88 18 18 18 C18 43.41 18 68.82 18 95 C65.85 95 113.7 95 163 95 C163 189.71 163 284.42 163 382 C185.77 382 208.54 382 232 382 C232 287.29 232 192.58 232 95 C237.61 95 243.22 95 249 95 C249 195.65 249 296.3 249 400 C215.01 400 181.02 400 146 400 C146 304.96 146 209.92 146 112 C97.82 112 49.64 112 0 112 C0 75.04 0 38.08 0 0 Z " fill="#DDDDDD" transform="translate(50,50)"/>
</svg>
