<?xml version="1.0" encoding="UTF-8"?>
<svg version="1.1" xmlns="http://www.w3.org/2000/svg" width="500" height="500">
<path d="M0 0 C9.50157977 10.9321547 14.28339253 23.65307843 13.58984375 38.08984375 C12.24881788 50.38258089 6.60498181 61.98896307 -2.76953125 70.1953125 C-8.97465528 74.7704338 -14.84508579 77.87237596 -22.26171875 80 C-22.8753125 80.18949219 -23.48890625 80.37898438 -24.12109375 80.57421875 C-37.29779765 83.19513248 -49.51871534 79.97946874 -61.26171875 74 C-61.9165625 74.66008057 -62.57140625 75.32016113 -63.24609375 76.00024414 C-65.71162001 78.48296466 -68.17949709 80.96330192 -70.64892578 83.44213867 C-71.71072736 84.50892297 -72.77162433 85.57660853 -73.83154297 86.64526367 C-75.36830788 88.19436334 -76.90845988 89.74003011 -78.44921875 91.28515625 C-79.37089844 92.21207275 -80.29257812 93.13898926 -81.2421875 94.09399414 C-83.38912678 96.20452655 -85.61495335 98.18389663 -87.90110683 100.14233208 C-92.46792079 104.12621069 -96.76378505 108.34793123 -101.05104065 112.62869263 C-101.8997934 113.47235756 -102.74854615 114.31602249 -103.62301868 115.18525302 C-105.95738835 117.50672048 -108.28957206 119.83035693 -110.62075865 122.15502 C-112.62537822 124.15322516 -114.63181582 126.1495999 -116.63826597 128.14596666 C-123.23691003 134.7114728 -129.82981714 141.28272338 -136.42110887 147.85560971 C-138.13672375 149.56642217 -139.8524284 151.27714456 -141.56815219 152.98784781 C-152.23109227 163.6198445 -162.89189725 174.25397912 -173.54777622 184.89305305 C-176.00944169 187.35076942 -178.47113413 189.80845876 -180.93286133 192.26611328 C-181.85056874 193.18230815 -181.85056874 193.18230815 -182.7868157 194.11701201 C-192.72289408 204.0360419 -202.67097082 213.94294974 -212.62386966 223.84509863 C-222.84719926 234.01672665 -233.05923686 244.19958279 -243.26038116 254.39346111 C-248.98654567 260.1149578 -254.71768071 265.83128021 -260.46161079 271.53494644 C-265.34637725 276.38551063 -270.22096033 281.24601754 -275.0823027 286.12006249 C-277.56376606 288.60737294 -280.04991241 291.08949072 -282.54925537 293.55884552 C-285.2541931 296.23158936 -287.93573103 298.92703433 -290.61524963 301.62527466 C-291.41424087 302.40747096 -292.2132321 303.18966727 -293.03643519 303.99556649 C-293.74709004 304.71878433 -294.45774489 305.44200217 -295.18993473 306.1871357 C-296.1226681 307.11726469 -296.1226681 307.11726469 -297.07424456 308.06618416 C-298.52729156 309.9970841 -298.52729156 309.9970841 -298.01010174 312.61818683 C-297.30490004 314.86257068 -296.48029728 316.70832169 -295.32421875 318.75 C-290.07946412 328.99157541 -289.78365971 340.71042865 -292.88671875 351.6875 C-297.67811462 365.5925999 -306.10967927 375.39301 -319.26171875 382 C-330.2797703 387.13774353 -343.21657064 387.21502714 -354.55859375 383.18359375 C-367.82861083 377.71543154 -377.00015541 369.0033926 -383.07421875 355.98046875 C-387.6747733 344.43368215 -387.29502268 332.6634722 -383.26171875 321 C-377.90938105 309.20332466 -370.24858937 300.10525896 -358.27734375 294.63671875 C-345.66165923 289.94845761 -333.07149216 289.47337919 -320.26171875 294 C-318.90435466 294.72768436 -317.56617413 295.49374609 -316.26171875 296.3125 C-314.77671875 297.1478125 -314.77671875 297.1478125 -313.26171875 298 C-309.82129639 296.84013047 -307.63074177 294.61781729 -305.09944534 292.08382225 C-304.27288319 291.26124219 -303.44632103 290.43866214 -302.59471154 289.59115541 C-301.69199006 288.68260824 -300.78926857 287.77406108 -299.85919189 286.83798218 C-298.88683834 285.86650066 -297.91404543 284.89545872 -296.94085097 283.92481959 C-294.26600528 281.25445166 -291.59744538 278.5778779 -288.92985368 275.90026617 C-286.05280189 273.0145884 -283.1699839 270.13468145 -280.28785706 267.2540741 C-275.2945475 262.26181393 -270.30491682 257.265901 -265.31775665 252.26749802 C-258.10713013 245.04062679 -250.8909962 237.81927561 -243.67350027 230.59926565 C-231.96412806 218.88551472 -220.2592304 207.16730315 -208.55712891 195.44628906 C-197.1887022 184.05950814 -185.81817966 172.67482684 -174.44482422 161.29296875 C-173.39348462 160.24084098 -173.39348462 160.24084098 -172.32090583 159.1674581 C-168.80476603 155.64870825 -165.2885849 152.12999969 -161.77238321 148.61131167 C-132.59575135 119.4139418 -103.42637332 90.20933342 -74.26171875 61 C-74.6074292 60.24871826 -74.95313965 59.49743652 -75.30932617 58.72338867 C-75.76154541 57.7357251 -76.21376465 56.74806152 -76.6796875 55.73046875 C-77.12852295 54.75231201 -77.5773584 53.77415527 -78.03979492 52.76635742 C-83.12649836 41.25038607 -82.72550008 27.7349835 -78.58984375 15.96875 C-73.09579425 3.68793348 -63.24800029 -6.11728539 -50.6796875 -11.00390625 C-32.72784188 -16.71209679 -13.8374656 -13.2744852 0 0 Z M-57.5703125 13.84375 C-63.83202323 21.82634659 -65.12307692 30.03285546 -64.26171875 40 C-62.25263499 48.44783413 -57.73049781 54.89243893 -50.6328125 59.828125 C-42.10475045 64.68832548 -33.9870695 65.50484368 -24.43359375 63.3671875 C-16.45877208 60.65183411 -10.65307408 55.13935822 -6.82421875 47.6875 C-3.44728199 40.22189541 -3.02494504 32.0479188 -4.98046875 24.06640625 C-8.56602892 14.56756337 -14.41427565 9.60366955 -23.26171875 5 C-35.74726653 0.83815074 -48.80572728 4.35320924 -57.5703125 13.84375 Z M-362.640625 318.8359375 C-368.06708719 326.07993763 -370.0040519 334.03007865 -368.890625 342.984375 C-367.16173166 351.44628776 -363.7714882 357.75625081 -356.6875 362.8515625 C-348.07562846 368.15697825 -338.93231866 369.74740634 -328.9296875 367.46875 C-326.94122884 366.69124336 -326.94122884 366.69124336 -324.26171875 365 C-323.25109375 364.4225 -322.24046875 363.845 -321.19921875 363.25 C-313.54625082 357.38815222 -309.33715234 350.28636465 -307.9140625 340.64453125 C-307.57187324 332.23857763 -310.1515205 324.32863011 -315.4609375 317.8203125 C-321.96821196 311.24246022 -329.2467749 308.07594107 -338.44921875 307.5625 C-348.0112618 307.78578947 -356.26458664 311.7573419 -362.640625 318.8359375 Z " fill="#DDDDDD" transform="translate(436.26171875,64)"/>
</svg>
